<?xml version="1.0" standalone="no"?>
<!DOCTYPE svg PUBLIC "-//W3C//DTD SVG 20010904//EN"
 "http://www.w3.org/TR/2001/REC-SVG-20010904/DTD/svg10.dtd">
<svg version="1.0" xmlns="http://www.w3.org/2000/svg"
 width="148.000000pt" height="148.000000pt" viewBox="0 0 148.000000 148.000000"
 preserveAspectRatio="xMidYMid meet">
<metadata>
Created by potrace 1.14, written by Peter Selinger 2001-2017
</metadata>
<g transform="translate(0.000000,148.000000) scale(0.100000,-0.100000)"
fill="#000000" stroke="none">
<path d="M820 1080 c-10 -6 -15 -25 -14 -60 0 -27 3 -52 6 -55 2 -3 25 -8 50
-11 41 -6 49 -4 73 20 23 23 26 33 22 63 -6 35 -20 53 -42 53 -5 -1 -2 -6 7
-14 23 -17 29 -60 12 -83 -10 -13 -13 -14 -9 -2 3 9 -1 22 -10 29 -8 7 -15 23
-15 36 0 13 -6 24 -12 24 -7 0 -22 3 -33 5 -11 3 -27 1 -35 -5z m40 -20 c0
-10 8 -24 18 -30 15 -10 15 -10 -4 -5 -13 3 -26 -1 -35 -11 -11 -14 -10 -18 6
-31 11 -8 30 -12 43 -10 17 3 20 1 13 -6 -15 -15 -60 2 -76 28 -9 14 -10 30
-3 53 9 35 38 44 38 12z"/>
<path d="M589 1047 c-9 -7 -22 -28 -29 -48 -12 -33 -15 -35 -59 -35 -37 1 -46
-3 -49 -18 -5 -22 13 -36 46 -36 21 0 21 -1 -9 -28 -32 -28 -32 -29 -32 -131
0 -56 3 -105 7 -108 10 -10 89 -4 96 8 4 6 6 21 4 35 l-2 24 104 0 104 0 0
100 0 99 -104 3 -105 3 22 55 22 55 83 3 c64 2 82 6 82 17 0 12 -17 15 -82 15
-49 -1 -89 -6 -99 -13z m-10 -216 c15 -27 -9 -56 -37 -47 -21 7 -31 44 -15 59
13 13 42 7 52 -12z"/>
<path d="M891 893 c-36 -43 -36 -46 -16 -63 8 -7 15 -18 15 -25 0 -20 45 -38
78 -30 66 14 87 89 37 133 -40 34 -78 29 -114 -15z m119 -17 c13 -23 13 -29 0
-53 -8 -14 -22 -28 -30 -31 -9 -3 -8 1 4 10 22 17 16 48 -10 48 -13 0 -14 3
-4 15 15 18 -3 47 -25 39 -14 -6 -15 -21 -2 -41 5 -8 3 -13 -6 -13 -8 0 -20
-6 -26 -14 -10 -11 -7 -17 11 -30 12 -9 18 -16 14 -16 -20 0 -46 35 -46 60 0
27 21 53 50 62 24 8 54 -7 70 -36z"/>
<path d="M834 743 c-16 -3 -23 -14 -28 -44 -15 -91 73 -140 132 -74 29 34 28
70 -3 100 -23 24 -48 29 -101 18z m98 -34 c9 -11 15 -29 13 -41 -6 -27 -34
-58 -54 -58 -10 0 -7 5 8 13 31 16 38 35 14 45 -11 4 -18 17 -18 32 0 16 -6
26 -19 28 -16 3 -18 -1 -14 -27 3 -21 0 -31 -8 -31 -25 0 -27 -23 -4 -42 12
-10 18 -18 12 -18 -6 0 -19 11 -30 25 -54 68 44 141 100 74z"/>
<path d="M31 553 c-12 -10 -23 -33 -26 -52 -8 -64 69 -106 110 -61 l18 20 22
-20 c12 -11 30 -20 41 -20 50 1 72 60 35 94 -25 23 -77 13 -86 -15 -4 -10 -15
-19 -25 -19 -10 0 -22 -4 -25 -10 -3 -5 -15 -10 -26 -10 -15 0 -19 7 -19 30 0
34 22 49 45 30 8 -7 23 -9 32 -5 16 6 15 9 -10 31 -33 28 -57 30 -86 7z m179
-78 c0 -16 -6 -25 -15 -25 -9 0 -15 9 -15 25 0 16 6 25 15 25 9 0 15 -9 15
-25z"/>
<path d="M1104 564 c-6 -3 -9 -16 -6 -29 4 -25 -11 -35 -23 -15 -9 15 -52 12
-69 -6 -14 -14 -16 -14 -16 0 0 12 -9 15 -37 12 -30 -2 -39 -8 -44 -27 -4 -15
-7 -18 -8 -7 -1 18 -30 38 -55 38 -26 0 -56 -37 -51 -62 10 -50 81 -64 100
-20 13 29 23 28 18 -2 -4 -20 -1 -25 16 -23 16 1 21 8 21 28 0 31 24 57 35 38
4 -6 21 -17 39 -25 l31 -15 -34 7 c-26 5 -32 3 -29 -7 6 -19 52 -34 74 -24 11
5 24 7 29 5 6 -2 52 -4 103 -5 92 0 92 0 92 25 0 14 4 32 10 40 8 13 10 13 14
0 3 -8 6 -26 8 -39 3 -27 38 -39 38 -13 0 13 2 13 13 -3 15 -20 37 -13 37 13
0 13 2 13 14 -3 7 -10 23 -20 35 -22 l23 -3 -21 34 c-19 29 -19 35 -6 46 8 7
15 16 15 21 0 10 -36 7 -46 -4 -14 -14 -23 -7 -19 14 6 29 -1 38 -23 32 -14
-3 -18 -11 -14 -29 2 -14 0 -24 -7 -24 -6 0 -11 4 -11 10 0 11 -69 9 -88 -3
-7 -5 -10 -12 -7 -17 3 -5 1 -11 -4 -15 -6 -3 -8 5 -6 18 4 17 0 23 -15 24
-20 2 -23 -5 -22 -62 0 -16 -2 -24 -5 -17 -3 6 -18 12 -33 12 -28 0 -29 2 -32
52 -3 50 -11 61 -34 52z m-244 -68 c0 -3 -4 -8 -10 -11 -5 -3 -10 -1 -10 4 0
6 5 11 10 11 6 0 10 -2 10 -4z m238 -23 c0 -23 -1 -23 -14 -4 -8 11 -24 22
-37 24 -12 2 -6 4 14 4 32 0 37 -3 37 -24z m-208 -12 c0 -4 -11 -8 -25 -9 -14
-1 -25 2 -25 6 0 4 11 8 25 8 14 1 25 -1 25 -5z m361 -14 c-10 -9 -11 -8 -5 6
3 10 9 15 12 12 3 -3 0 -11 -7 -18z"/>
<path d="M1210 554 c-10 -12 -8 -14 14 -14 28 0 35 14 12 23 -8 3 -20 -1 -26
-9z"/>
<path d="M731 538 c-5 -13 -5 -30 0 -39 4 -8 6 -24 5 -35 -4 -25 11 -44 35
-44 12 0 19 7 19 20 0 11 -4 20 -10 20 -17 0 -11 38 8 45 16 6 16 7 0 19 -10
7 -18 18 -18 25 0 20 -30 12 -39 -11z"/>
<path d="M264 523 c-16 -5 -1 -98 16 -98 9 0 15 11 17 29 3 46 23 57 23 14 0
-60 38 -63 43 -4 3 40 22 36 25 -6 2 -25 8 -38 18 -38 8 0 14 6 14 14 0 8 4
18 10 21 5 3 7 0 4 -8 -7 -18 9 -29 30 -21 10 4 14 14 12 29 -5 28 10 57 18
35 3 -8 6 -26 8 -40 4 -36 32 -32 36 5 4 36 21 58 24 29 0 -10 2 -23 3 -29 2
-5 3 -15 4 -21 2 -16 31 -13 31 3 0 7 5 13 11 13 5 0 8 -4 4 -9 -7 -13 23 -21
65 -17 35 3 35 4 36 53 0 41 -3 49 -18 50 -16 2 -23 -9 -19 -31 1 -4 -1 -17
-5 -28 -8 -26 -22 -12 -26 27 -4 43 -32 40 -37 -5 l-4 -35 -6 35 -6 35 -80 -1
c-56 0 -79 -4 -77 -12 3 -16 -15 -15 -20 1 -4 11 -127 19 -154 10z m176 -43
c0 -5 -5 -10 -11 -10 -5 0 -7 5 -4 10 3 6 8 10 11 10 2 0 4 -4 4 -10z"/>
</g>
</svg>
